<?xml version="1.0" encoding="iso-8859-1"?>
<!-- Uploaded to: SVG Repo, www.svgrepo.com, Generator: SVG Repo Mixer Tools -->
<!DOCTYPE svg PUBLIC "-//W3C//DTD SVG 1.1//EN" "http://www.w3.org/Graphics/SVG/1.1/DTD/svg11.dtd">
<svg fill="#000000" height="800px" width="800px" version="1.1" id="Capa_1" xmlns="http://www.w3.org/2000/svg" xmlns:xlink="http://www.w3.org/1999/xlink" 
	 viewBox="0 0 367.578 367.578" xml:space="preserve">
<path d="M281.541,97.751c0-53.9-43.851-97.751-97.751-97.751S86.038,43.851,86.038,97.751c0,44.799,30.294,82.652,71.472,94.159
	v144.668c0,4.026,1.977,9.1,4.701,12.065l14.514,15.798c1.832,1.993,4.406,3.136,7.065,3.136s5.233-1.143,7.065-3.136l14.514-15.798
	c2.724-2.965,4.701-8.039,4.701-12.065v-7.387l14.592-9.363c2.564-1.646,4.035-4.164,4.035-6.909c0-2.744-1.471-5.262-4.036-6.907
	l-14.591-9.363v-0.207l14.592-9.363c2.564-1.646,4.035-4.164,4.035-6.909c0-2.744-1.471-5.262-4.036-6.907l-14.591-9.363v-0.207
	l14.592-9.363c2.564-1.646,4.035-4.164,4.035-6.908c0-2.745-1.471-5.263-4.036-6.909l-14.591-9.363V191.91
	C251.246,180.403,281.541,142.551,281.541,97.751z M183.789,104.948c-20.985,0-37.996-17.012-37.996-37.996
	s17.012-37.996,37.996-37.996s37.996,17.012,37.996,37.996S204.774,104.948,183.789,104.948z"/>
</svg>