<?xml version="1.0" standalone="no"?>
<!DOCTYPE svg PUBLIC "-//W3C//DTD SVG 20010904//EN"
 "http://www.w3.org/TR/2001/REC-SVG-20010904/DTD/svg10.dtd">
<svg version="1.0" xmlns="http://www.w3.org/2000/svg"
 width="1280.000000pt" height="1188.000000pt" viewBox="0 0 1280.000000 1188.000000"
 preserveAspectRatio="xMidYMid meet">
<metadata>
Created by potrace 1.15, written by Peter Selinger 2001-2017
</metadata>
<g transform="translate(0.000000,1188.000000) scale(0.100000,-0.100000)"
fill="#000000" stroke="none">
<path d="M8500 11869 c-102 -10 -263 -44 -363 -75 -82 -26 -205 -75 -557 -224
-257 -108 -1541 -648 -1730 -727 -90 -38 -771 -271 -1615 -553 -2741 -916
-3013 -1008 -3111 -1051 -545 -239 -961 -756 -1082 -1344 -39 -188 -44 -294
-33 -660 17 -534 13 -520 401 -1445 332 -788 226 -492 1061 -2988 247 -738
469 -1388 494 -1444 177 -403 490 -727 899 -931 65 -32 155 -84 200 -113 348
-233 818 -349 1234 -303 240 26 381 68 747 222 138 58 619 261 1070 450 451
190 1216 511 1700 715 484 203 963 405 1065 447 125 53 560 203 1349 466 868
290 1193 402 1278 443 306 147 575 380 758 656 27 41 81 113 118 160 204 253
343 574 399 915 18 116 16 446 -5 565 -19 108 -62 282 -80 320 -16 34 -91 70
-144 70 l-43 0 0 40 c0 75 -118 502 -247 894 -36 110 -230 585 -550 1345 -272
647 -509 1210 -525 1251 -17 41 -140 401 -273 800 -266 795 -264 790 -337 935
-124 248 -325 489 -544 651 -43 32 -122 90 -174 129 -187 139 -353 226 -560
296 -257 85 -537 116 -800 88z m692 -468 c138 -28 292 -82 421 -147 102 -52
122 -67 222 -168 117 -117 208 -242 277 -380 36 -71 717 -1679 755 -1781 8
-22 225 -668 483 -1435 257 -767 491 -1453 520 -1525 221 -552 338 -811 406
-901 l36 -46 -30 -32 c-16 -17 -37 -46 -47 -65 -15 -31 -15 -38 -1 -100 29
-121 38 -205 37 -356 0 -248 -52 -477 -157 -691 -39 -81 -57 -104 -139 -183
-165 -157 -286 -227 -685 -394 -124 -52 -704 -296 -1290 -542 l-1065 -448
-1090 -364 c-3084 -1033 -3727 -1246 -3810 -1264 -279 -60 -552 -46 -825 43
l-95 31 -125 126 c-181 181 -260 303 -379 583 -63 149 -1430 3399 -1551 3688
-79 187 -685 2000 -712 2126 -22 106 -22 107 -4 213 83 491 403 929 841 1149
71 35 707 304 3000 1267 363 152 874 367 1135 477 l475 200 1322 443 c1263
424 1425 475 1573 495 107 14 391 4 502 -19z m-7383 -2255 c-2 -2 -160 -69
-351 -150 -349 -146 -438 -187 -513 -234 -22 -14 -34 -18 -27 -9 23 28 197
135 294 182 104 50 621 233 597 211z m10546 -3556 c32 -52 74 -110 92 -131
l33 -36 -25 -23 c-13 -13 -32 -43 -41 -67 -16 -41 -16 -46 4 -116 12 -39 28
-103 36 -140 14 -69 14 -69 -8 -62 -11 3 -38 9 -58 12 -35 5 -38 8 -38 39 0
76 -62 412 -126 682 -13 57 -24 107 -24 110 0 4 22 -33 48 -83 27 -49 75 -133
107 -185z m-7340 -5028 c-13 -11 -365 -155 -430 -176 -78 -24 -217 -56 -245
-55 -14 0 133 54 325 119 388 131 363 123 350 112z"/>
<path d="M6305 9281 c-44 -20 -114 -90 -140 -140 -25 -49 -55 -178 -55 -236
l0 -52 -72 -7 c-218 -20 -571 -101 -788 -179 -942 -343 -1673 -1040 -2074
-1979 -142 -333 -243 -757 -272 -1135 l-7 -93 3508 0 3507 0 -6 78 c-61 712
-291 1340 -689 1885 -574 784 -1451 1305 -2382 1413 -203 23 -185 17 -185 72
0 26 -7 76 -15 111 -49 208 -195 324 -330 262z m-760 -749 c-382 -221 -695
-518 -941 -892 -299 -455 -498 -1022 -557 -1585 l-12 -120 -229 -3 -229 -2 7
56 c21 183 91 454 171 669 280 752 918 1435 1745 1869 69 36 129 66 135 66 5
0 -35 -26 -90 -58z"/>
<path d="M9615 5410 c-1159 -63 -1987 -106 -5315 -280 -949 -49 -1803 -94
-1898 -100 -95 -5 -184 -10 -197 -10 l-25 0 0 -140 0 -140 4198 2 4197 3 0
355 0 355 -30 1 c-16 1 -435 -20 -930 -46z"/>
<path d="M2292 3888 l3 -482 45 -8 c269 -46 770 -58 975 -24 286 47 459 135
536 272 38 67 43 71 120 88 431 100 2509 180 5629 217 525 6 961 12 968 15 9
2 12 52 12 204 l0 200 -52 0 c-29 0 -118 -5 -198 -10 -80 -5 -527 -32 -995
-60 -467 -28 -1149 -68 -1515 -90 -366 -22 -897 -53 -1180 -70 -726 -43 -1431
-85 -2103 -125 -318 -19 -595 -35 -616 -35 -37 0 -41 3 -69 53 -58 103 -152
180 -305 252 -183 86 -175 85 -750 85 l-507 0 2 -482z m909 328 c8 -17 8 -29
0 -45 -12 -21 -15 -21 -376 -21 -359 0 -364 0 -370 21 -4 11 -4 31 -1 45 l6
24 365 0 365 0 11 -24z m0 -200 c8 -17 8 -29 0 -45 -12 -21 -15 -21 -376 -21
-359 0 -364 0 -370 21 -4 11 -4 31 -1 45 l6 24 365 0 365 0 11 -24z m0 -200
c8 -17 8 -29 0 -45 -12 -21 -15 -21 -376 -21 -359 0 -364 0 -370 21 -4 11 -4
31 -1 45 l6 24 365 0 365 0 11 -24z m0 -200 c8 -17 8 -29 0 -45 -12 -21 -15
-21 -376 -21 -359 0 -364 0 -370 21 -4 11 -4 31 -1 45 l6 24 365 0 365 0 11
-24z"/>
</g>
</svg>
